<?xml version="1.0" encoding="UTF-8" standalone="no"?><!DOCTYPE svg PUBLIC "-//W3C//DTD SVG 1.1//EN" "http://www.w3.org/Graphics/SVG/1.1/DTD/svg11.dtd"><svg width="100%" height="100%" viewBox="0 0 9100 8134" version="1.1" xmlns="http://www.w3.org/2000/svg" xmlns:xlink="http://www.w3.org/1999/xlink" xml:space="preserve" xmlns:serif="http://www.serif.com/" style="fill-rule:evenodd;clip-rule:evenodd;stroke-linejoin:round;stroke-miterlimit:2;"><g id="Background"><path d="M5638.627,4006.258c162.136,-0.176 526.883,25.594 807.454,-191.051c470.067,-362.967 332.652,-1191.934 -408.282,-1299.459c-107.534,-15.605 -1798.843,-4.088 -2240.087,-0.803c-27.701,0.12 -54.308,-10.799 -73.938,-30.344c-19.63,-19.545 -30.665,-46.105 -30.665,-73.806c-0.016,-200.467 -0.016,-635.664 -0.016,-835.778c0,-27.692 11.026,-54.244 30.643,-73.79c19.616,-19.546 46.208,-30.476 73.9,-30.376c219.644,0.623 789.093,1.857 1743.234,1.404c216.576,-0.103 752.703,-34.473 1277.591,207.286c800.233,368.579 888.528,1097.209 907.803,1222.083c130.807,847.428 -222.275,1780.584 -1500.659,1993.112c-0.001,0 -0.003,0 -0.004,0.001c-13.339,2.217 -24.457,11.431 -29.112,24.126c-4.655,12.695 -2.128,26.912 6.616,37.226c261.192,308.077 1596.727,1883.341 1596.727,1883.341c0,0 -1075.462,0.142 -1314.236,0.173c-29.642,0.004 -57.883,-12.621 -77.647,-34.713c-289.417,-323.5 -2503.782,-2798.639 -2503.782,-2798.639c0,0 1597.312,-0.118 1734.46,0.008Z" style="fill:#1d1d22;"/><path d="M2115.119,3072.737l1045.014,933.333l0,2729.174c0,27.63 -10.977,54.128 -30.516,73.663c-19.539,19.536 -46.039,30.508 -73.669,30.503c-200.199,-0.034 -636.509,-0.109 -836.68,-0.144c-57.523,-0.01 -104.149,-46.644 -104.149,-104.167c-0,-607.096 -0,-3662.363 -0,-3662.363Z" style="fill:#1d1e22;"/><path d="M2115.119,1574.503c0,-57.53 46.637,-104.167 104.167,-104.167c200.185,0 636.495,0 836.68,0c57.53,-0 104.167,46.637 104.167,104.167c0,200.225 0,636.675 0,836.899c-0,57.53 -46.637,104.167 -104.167,104.167c-200.185,-0 -636.495,-0 -836.68,-0c-57.53,0 -104.167,-46.637 -104.167,-104.167c-0,-200.225 -0,-636.675 -0,-836.899Z" style="fill:#b1e14e;"/></g><g id="Layer1"></g><path d="M3917.809,5131.936l1264.383,1219.046l-619.598,20.15l-241.794,120.897l-402.991,347.579l0,-1707.672Z" style="fill:#1d1d22;"/></svg>